# xmcd
#
# Track frame offsets:
#   150
#   16784
#   36391
#   51246
#   68778
#   84539
#   101621
#   120109
#   137397
#   154268
#   173980
#   196651
#   234888
#   247942
#   265449
#   282216
#   296514
#   309763
#   325958
#   342085
#
# Disc length: 4763 seconds
#
# Revision: 0
# Processed by: cddbd v1.5PL3 Copyright (c) Steve Scherf et al.
# Submitted via: Media_Universe 3.0
#
DISCID=08129914
DTITLE=Various Artist - Mixed
DYEAR=1900
DGENRE=Country
TTITLE0=Stand Beside Me
TTITLE1=Burn
TTITLE2=I'm Alright
TTITLE3=Ride The Night Away
TTITLE4=Lover Lover
TTITLE5=Stone Cold
TTITLE6=Make It Last All Night
TTITLE7=Falling In Love
TTITLE8=Toeing The Line
TTITLE9=Dead Ringer For Love
TTITLE10=Hot Summer Night
TTITLE11=Paradise By The Dashboard Light
TTITLE12=Baby I Love You
TTITLE13=Me Too
TTITLE14=You Shouldn't Kiss Me Like That
TTITLE15=Till I Was Loved By You
TTITLE16=Sea Of Cowboy Hats
TTITLE17=Good Morning Beautiful
TTITLE18=Wrapped Up In You
TTITLE19=
EXTD=
EXTT0=
EXTT1=
EXTT2=
EXTT3=
EXTT4=
EXTT5=
EXTT6=
EXTT7=
EXTT8=
EXTT9=
EXTT10=
EXTT11=
EXTT12=
EXTT13=
EXTT14=
EXTT15=
EXTT16=
EXTT17=
EXTT18=
EXTT19=
PLAYORDER=
